<svg xmlns="http://www.w3.org/2000/svg" id="uuid-28fed38f-7036-4db0-85be-73f93747b9a9" data-name="Layer 2" viewBox="0 0 416.08 96.69"><defs><style>      .uuid-d187428e-3159-46b5-b97b-1ee1c6d4df29 {        fill: #6c3302;      }      .uuid-945684db-226d-4785-91de-88f62af200b9 {        fill: #9dad33;      }      .uuid-20593e1b-bafe-4ca6-9a54-8482d1655bdd {        fill: #2d637f;      }    </style></defs><g id="uuid-777f76b4-cc84-4796-a1f3-f457d53ef0a8" data-name="Layer 1"><g><g><path class="uuid-d187428e-3159-46b5-b97b-1ee1c6d4df29" d="M169.19,66.53v-21.42h4.58v21.42h-4.58Z"></path><path class="uuid-d187428e-3159-46b5-b97b-1ee1c6d4df29" d="M196.65,66.86l-11.75-11.28-1.4-1.22v12.17h-4.49v-21.75h.18l11.72,11.28,1.37,1.22v-12.17h4.52v21.75h-.15Z"></path><path class="uuid-d187428e-3159-46b5-b97b-1ee1c6d4df29" d="M202.03,66.53v-21.42h6.84c7.29,0,11.9,4.43,11.9,10.71s-4.58,10.71-11.84,10.71h-6.9Zm4.58-17.59v13.75h2.26c4.58,0,7.29-2.98,7.29-6.87s-2.71-6.87-7.35-6.87h-2.2Z"></path><path class="uuid-d187428e-3159-46b5-b97b-1ee1c6d4df29" d="M224.66,66.53v-21.42h4.58v21.42h-4.58Z"></path><path class="uuid-d187428e-3159-46b5-b97b-1ee1c6d4df29" d="M242.39,44.78h.18l10.41,21.75h-4.79l-1.73-3.78h-8l-1.67,3.78h-4.79l10.38-21.75Zm2.71,14.76c-.98-2.23-1.93-4.49-2.59-6.37-.63,1.49-1.76,4.34-2.65,6.37h5.24Z"></path><path class="uuid-d187428e-3159-46b5-b97b-1ee1c6d4df29" d="M261.6,66.53v-21.42h13.78v3.84h-9.19v4.88h7.8v3.69h-7.8v5.18h9.64v3.84h-14.22Z"></path><path class="uuid-d187428e-3159-46b5-b97b-1ee1c6d4df29" d="M297.33,66.86l-11.75-11.28-1.4-1.22v12.17h-4.49v-21.75h.18l11.72,11.28,1.37,1.22v-12.17h4.52v21.75h-.15Z"></path><path class="uuid-d187428e-3159-46b5-b97b-1ee1c6d4df29" d="M302.71,66.53v-21.42h13.78v3.84h-9.19v4.88h7.79v3.69h-7.79v5.18h9.64v3.84h-14.22Z"></path><path class="uuid-d187428e-3159-46b5-b97b-1ee1c6d4df29" d="M328.32,45.11c4.97,0,8.27,2.47,8.27,7.05,0,3.12-1.75,5.18-4.08,6.1l4.49,8.27h-4.85l-3.78-7.5h-3.09v7.5h-4.49v-21.42h7.53Zm-3.03,3.84v6.4h3.27c2.02,0,3.42-1.01,3.42-3.18s-1.46-3.21-3.54-3.21h-3.15Z"></path><path class="uuid-d187428e-3159-46b5-b97b-1ee1c6d4df29" d="M350.96,66.95c-6.78,0-11.51-4.85-11.51-11.13s4.79-11.13,11.43-11.13c3.18,0,5.5,.89,6.72,1.46v4.22c-1.4-.65-3.54-1.49-6.43-1.49-4.43,0-7.11,3.12-7.11,6.93s2.68,6.96,6.9,6.96c1.04,0,2.17-.18,2.92-.42v-5.71h4.37v8.66c-1.9,.98-4.67,1.64-7.29,1.64Z"></path><path class="uuid-d187428e-3159-46b5-b97b-1ee1c6d4df29" d="M364.67,45.11l4.91,8.78,4.91-8.78h5.18l-7.79,13.12v8.3h-4.58v-8.3l-7.77-13.12h5.15Z"></path><path class="uuid-d187428e-3159-46b5-b97b-1ee1c6d4df29" d="M404,55.76c.21,2.53-.18,4.91-1.52,6.96l3.66,3.81h-4.88l-1.31-1.37c-1.52,1.16-3.45,1.78-5.71,1.78-5.36,0-8.03-2.77-8.03-5.98,0-2.74,2.05-4.52,4.17-5.68-1.34-1.46-2.23-2.86-2.23-5.15,0-2.86,2.65-5.44,6.07-5.44s6.04,2.5,6.04,5.3c0,3.39-2.62,5.15-4.28,5.95l3.63,3.75c.51-1.22,.68-2.59,.59-3.93h3.81Zm-11.39,1.84c-1.13,.63-2.23,1.58-2.23,2.98,0,1.64,1.49,2.86,3.9,2.86,1.1,0,2.17-.36,3.01-1.01l-4.67-4.82Zm1.04-4.05c1.19-.63,2.8-1.7,2.8-3.18,0-1.22-.98-2.17-2.23-2.17s-2.26,.95-2.26,2.17,.65,2.05,1.7,3.18Z"></path><path class="uuid-d187428e-3159-46b5-b97b-1ee1c6d4df29" d="M185.43,80.12c-1.28-.65-3.3-1.49-5.92-1.49-4.34,0-7.08,3.12-7.08,6.93s2.71,6.93,6.93,6.93c2.77,0,4.88-.8,6.22-1.49v4.25c-1.1,.6-3.54,1.43-6.55,1.43-6.46,0-11.19-4.85-11.19-11.13s4.73-11.13,11.34-11.13c3.01,0,5.15,.89,6.25,1.49v4.2Z"></path><path class="uuid-d187428e-3159-46b5-b97b-1ee1c6d4df29" d="M189.38,96.28v-21.42h4.58v17.59h8.24v3.84h-12.82Z"></path><path class="uuid-d187428e-3159-46b5-b97b-1ee1c6d4df29" d="M205.65,96.28v-21.42h4.58v21.42h-4.58Z"></path><path class="uuid-d187428e-3159-46b5-b97b-1ee1c6d4df29" d="M220.97,85.21l-1.13-.98v12.05h-4.37v-21.75h.09l10.21,10.29,10.21-10.29h.09v21.75h-4.37v-12.05l-1.13,.98c-1.58,1.73-3.18,3.45-4.79,5.15-1.61-1.7-3.18-3.42-4.79-5.15Z"></path><path class="uuid-d187428e-3159-46b5-b97b-1ee1c6d4df29" d="M249.2,74.53h.18l10.41,21.75h-4.79l-1.73-3.78h-8l-1.67,3.78h-4.79l10.39-21.75Zm2.71,14.76c-.98-2.23-1.93-4.49-2.59-6.37-.63,1.49-1.76,4.34-2.65,6.37h5.24Z"></path><path class="uuid-d187428e-3159-46b5-b97b-1ee1c6d4df29" d="M269.55,78.69v17.59h-4.58v-17.59h-5.98v-3.84h16.57v3.84h-6.01Z"></path><path class="uuid-d187428e-3159-46b5-b97b-1ee1c6d4df29" d="M278.77,96.28v-21.42h13.78v3.84h-9.19v4.88h7.8v3.69h-7.8v5.18h9.64v3.84h-14.22Z"></path><path class="uuid-d187428e-3159-46b5-b97b-1ee1c6d4df29" d="M318.96,80.12c-1.28-.65-3.3-1.49-5.92-1.49-4.34,0-7.08,3.12-7.08,6.93s2.71,6.93,6.93,6.93c2.77,0,4.88-.8,6.22-1.49v4.25c-1.1,.6-3.54,1.43-6.55,1.43-6.46,0-11.19-4.85-11.19-11.13s4.73-11.13,11.34-11.13c3.01,0,5.15,.89,6.25,1.49v4.2Z"></path><path class="uuid-d187428e-3159-46b5-b97b-1ee1c6d4df29" d="M322.91,96.28v-21.42h13.78v3.84h-9.19v4.88h7.8v3.69h-7.8v5.18h9.64v3.84h-14.22Z"></path><path class="uuid-d187428e-3159-46b5-b97b-1ee1c6d4df29" d="M358.64,96.6l-11.75-11.28-1.4-1.22v12.17h-4.49v-21.75h.18l11.72,11.28,1.37,1.22v-12.17h4.52v21.75h-.15Z"></path><path class="uuid-d187428e-3159-46b5-b97b-1ee1c6d4df29" d="M372.56,78.69v17.59h-4.58v-17.59h-5.98v-3.84h16.57v3.84h-6.01Z"></path><path class="uuid-d187428e-3159-46b5-b97b-1ee1c6d4df29" d="M381.77,96.28v-21.42h13.78v3.84h-9.19v4.88h7.8v3.69h-7.8v5.18h9.64v3.84h-14.22Z"></path><path class="uuid-d187428e-3159-46b5-b97b-1ee1c6d4df29" d="M407.39,74.85c4.97,0,8.27,2.47,8.27,7.05,0,3.12-1.75,5.18-4.08,6.1l4.49,8.27h-4.85l-3.78-7.5h-3.09v7.5h-4.49v-21.42h7.53Zm-3.03,3.84v6.4h3.27c2.02,0,3.42-1.01,3.42-3.18s-1.46-3.21-3.54-3.21h-3.15Z"></path></g><g><path class="uuid-20593e1b-bafe-4ca6-9a54-8482d1655bdd" d="M0,48.15H10.5v47.71H0V48.15Z"></path><rect class="uuid-20593e1b-bafe-4ca6-9a54-8482d1655bdd" x="22.04" y="87.09" width="36.33" height="8.77"></rect><rect class="uuid-20593e1b-bafe-4ca6-9a54-8482d1655bdd" x="22.04" y="71.18" width="36.33" height="8.77"></rect><rect class="uuid-20593e1b-bafe-4ca6-9a54-8482d1655bdd" x="22.04" y="55.27" width="36.33" height="8.77"></rect><path class="uuid-20593e1b-bafe-4ca6-9a54-8482d1655bdd" d="M110.08,54.08s-.07-.03-.11-.06c-4.3-3.98-9.56-6.69-18.08-6.69-13.07,0-22.6,8.85-24.5,20.39-.23,1.4-.37,2.82-.37,4.29v.14c0,13.7,10.43,24.54,24.47,24.54,6.35,0,10.89-1.58,14.72-4.27,1.72-1.21,3.32-2.62,4.84-4.25l-1.67-1.69-5.01-5.06c-3.75,3.41-7.09,5.59-12.54,5.59-8.18,0-13.84-6.82-13.84-15v-.14c0-8.18,5.79-14.86,13.84-14.86,4.34,0,7.84,1.71,11.21,4.53,1.55,1.38,2.9,2.97,4.03,4.72,.76-3.9,2.29-7.55,4.51-10.75-.49-.51-.99-1-1.49-1.44Z"></path><path class="uuid-945684db-226d-4785-91de-88f62af200b9" d="M49.86,28.45h-5.7l3.4-13.26,.76-2.97,.05-.18c.18-.69-.7-1.15-1.17-.61l-.23,.27-2.17,2.49-15.14,17.36c-.68,.78-.13,1.99,.9,1.99h5.7l-3.4,13.25-.76,2.97-.05,.18c-.18,.69,.7,1.15,1.17,.61l.23-.27,2.17-2.49,15.15-17.36c.68-.78,.13-1.99-.9-1.99Z"></path><path class="uuid-945684db-226d-4785-91de-88f62af200b9" d="M60.27,51c-.68,0-1.37-.24-1.92-.74-1.17-1.06-1.25-2.86-.19-4.03,4.07-4.47,6.3-10.25,6.3-16.27,0-13.38-10.88-24.26-24.26-24.26S15.94,16.59,15.94,29.97c0,6.02,2.24,11.79,6.3,16.27,1.06,1.17,.97,2.97-.19,4.03-1.16,1.06-2.97,.97-4.03-.19-5.02-5.52-7.79-12.66-7.79-20.1C10.24,13.44,23.68,0,40.2,0s29.96,13.44,29.96,29.97c0,7.44-2.77,14.58-7.79,20.1-.56,.62-1.34,.93-2.11,.93Z"></path><path class="uuid-20593e1b-bafe-4ca6-9a54-8482d1655bdd" d="M147.65,81.41c-.9,.82-1.56,1.45-2.53,2.15-.68,.49-1.72,1.19-2.37,1.54-1.09,.58-2.35,1.16-3.81,1.5-1.32,.3-2.8,.44-4.01,.42-2.67-.06-5.21-.82-7.33-2.26-3.64-2.47-6.32-7.08-6.32-12.75-.04-2.81,.62-5.32,1.72-7.47,1.34-2.63,3.38-4.71,5.86-6,4.03-2.1,9.2-2.13,13.88,.49,1.66,.93,3.16,2.09,4.58,3.38l6.68-7.7c-2.85-2.85-6.32-5.1-10.22-6.22-4.41-1.28-9.71-1.51-14.26-.55-3.09,.65-6.05,1.89-8.64,3.65-14.67,9.89-13.97,33.13,1.49,41.9,6.31,3.68,14.57,4.08,21.35,1.91,4.19-1.36,7.68-4.02,10.62-7.21l-6.68-6.75Z"></path></g></g></g></svg>
