<?xml version="1.0" encoding="UTF-8"?><svg id="Layer_1" xmlns="http://www.w3.org/2000/svg" viewBox="0 0 610.19 186.7"><defs><style>.cls-1{fill:#fff;}</style></defs><path class="cls-1" d="M127.18,21.48h-27.03c-23.89,0-30.38,9.64-32.9,19.7h0c-.76,3.69.73,7.49,3.8,9.68l36.97,33.23c5.44,3.87,8.67,10.13,8.68,16.81h0c0,2.93,0,4.82-1.05,10.06-5.45,25.56-26.4,39.18-61.39,39.18l-46.52-2.93,3.35-16.13h36.88c23.89,0,25.98-8.17,29.75-24.73h0c.26-1.67-.45-3.34-1.83-4.31l-43.62-37.69c-4.21-2.97-6.71-7.8-6.72-12.95v-.15c0-2.3.21-4.82.63-7.12C31.22,18.54,50.07,1.99,88.84,1.99l41.49,3.35-3.14,16.13Z"/><path class="cls-1" d="M213.93,148.87c-21.79,0-28.92,0-28.92-11.31,0-5.03,1.89-13.41,3.98-23.89l8.8-40.86c.63-3.35,1.26-6.5,1.26-9.01,0-6.71-3.56-9.64-15.3-9.64h-20.53l-20.12,94.71h-32.06L142.27,1.99c21.37,0,28.5.21,28.5,11.94,0,5.45-1.26,12.99-3.77,24.31l33.53-3.14c14.67,0,30.8,5.87,30.8,27.24,0,3.35-.42,6.91-1.26,10.9l-16.13,75.64Z"/><path class="cls-1" d="M327.07,80.56h-24.31c1.05-5.03,1.68-9.01,1.68-12.78,0-9.64-5.24-12.36-16.55-12.36h-14.25l-19.91,93.45h-32.06l23.47-110.21,52.17-4.19c21.79,0,36.04,11.11,36.04,25.35,0,2.93-.84,6.29-1.89,9.22l-4.4,11.52Z"/><path class="cls-1" d="M415.5,146.78l-55.32,3.77c-28.92,0-42.54-8.59-42.54-27.24,0-3.35.42-6.91,1.26-10.9l.84-3.77c5.66-25.98,22.21-36.25,45.47-36.25l33.32,2.93,1.68-7.54c1.68-7.75-.84-12.57-25.77-12.57h-36.46l3.14-16.34,39.39-3.77c36.88,0,51.96,8.38,51.96,28.08,0,3.56-.63,7.54-1.47,11.73l-15.51,71.87ZM373.8,89.78c-16.97,0-19.07,8.59-21.79,21.16,0,.63-.42,1.47-.42,2.1-.84,3.56-1.26,6.71-1.26,9.22,0,6.71,3.35,9.64,14.25,9.64h21.79c2.93-14.04,6.29-27.87,9.22-42.12h-21.79Z"/><path class="cls-1" d="M591.51,148.87c-21.79,0-28.92,0-28.92-11.31,0-5.03,1.89-13.62,4.19-24.73l8.38-38.97c.63-3.35,1.05-6.29,1.05-8.8,0-6.71-3.35-10.06-14.25-10.06h-23.26c1.05,4.19,1.68,7.96,1.68,11.52,0,2.72-.42,5.45-1.05,8.17-1.47,6.29-2.93,14.25-4.82,22.63-3.77,16.55-7.54,34.99-11.32,51.54h-32.27l15.92-75.01c.63-3.35,1.26-6.29,1.26-8.8,0-6.5-3.56-9.43-14.25-9.43h-19.07l-19.91,93.24h-32.06l23.47-109.8,53.85-3.98c9.64,0,22,2.31,29.33,5.87l38.97-6.5c25.98.21,40.44,9.22,40.44,28.29,0,2.93-.21,6.29-1.05,9.85l-16.34,76.27Z"/><path class="cls-1" d="M5.76,184.28c-2.05,0-4.13-.72-5.76-2.17l1.76-2.11c1.22,1.01,2.5,1.65,4.05,1.65,1.22,0,1.96-.48,1.96-1.28v-.04c0-.76-.46-1.14-2.73-1.73-2.73-.7-4.5-1.45-4.5-4.15v-.04c0-2.46,1.98-4.09,4.75-4.09,1.98,0,3.66.62,5.04,1.72l-1.55,2.25c-1.2-.83-2.38-1.34-3.53-1.34s-1.74.52-1.74,1.18v.04c0,.89.58,1.18,2.93,1.78,2.75.72,4.3,1.71,4.3,4.07v.04c0,2.69-2.05,4.21-4.98,4.21Z"/><path class="cls-1" d="M19.55,178.68v5.41h-2.98v-5.35l-5.21-8.22h3.49l3.24,5.45,3.29-5.45h3.39l-5.21,8.16Z"/><path class="cls-1" d="M30.78,184.28c-2.05,0-4.13-.72-5.76-2.17l1.76-2.11c1.22,1.01,2.5,1.65,4.05,1.65,1.22,0,1.96-.48,1.96-1.28v-.04c0-.76-.46-1.14-2.73-1.73-2.73-.7-4.5-1.45-4.5-4.15v-.04c0-2.46,1.98-4.09,4.75-4.09,1.98,0,3.66.62,5.04,1.72l-1.55,2.25c-1.2-.83-2.38-1.34-3.53-1.34s-1.74.52-1.74,1.18v.04c0,.89.58,1.18,2.93,1.78,2.75.72,4.3,1.71,4.3,4.07v.04c0,2.69-2.05,4.21-4.98,4.21Z"/><path class="cls-1" d="M44.21,173.27v10.81h-2.98v-10.81h-4.13v-2.75h11.24v2.75h-4.13Z"/><path class="cls-1" d="M50.63,184.08v-13.56h10.23v2.65h-7.27v2.75h6.4v2.66h-6.4v2.85h7.36v2.65h-10.33Z"/><path class="cls-1" d="M74.21,184.08v-8.86l-3.82,5.79h-.08l-3.78-5.74v8.8h-2.93v-13.56h3.22l3.57,5.74,3.57-5.74h3.22v13.56h-2.96Z"/><path class="cls-1" d="M89.23,173.23v2.89h6.47v2.71h-6.47v5.25h-2.98v-13.56h10.33v2.71h-7.34Z"/><path class="cls-1" d="M105.55,184.32c-4.19,0-7.19-3.12-7.19-6.98v-.04c0-3.86,3.04-7.01,7.23-7.01s7.19,3.12,7.19,6.98v.04c0,3.86-3.04,7.01-7.23,7.01ZM109.66,177.3c0-2.33-1.71-4.26-4.11-4.26s-4.07,1.9-4.07,4.22v.04c0,2.33,1.71,4.26,4.11,4.26s4.07-1.9,4.07-4.22v-.04Z"/><path class="cls-1" d="M123.67,184.08l-2.91-4.34h-2.34v4.34h-2.98v-13.56h6.2c3.2,0,5.12,1.69,5.12,4.48v.04c0,2.19-1.18,3.57-2.91,4.21l3.31,4.84h-3.49ZM123.73,175.15c0-1.28-.89-1.94-2.34-1.94h-2.96v3.9h3.02c1.45,0,2.29-.78,2.29-1.92v-.04Z"/><path class="cls-1" d="M143.75,184.08v-5.45h-5.5v5.45h-2.98v-13.56h2.98v5.37h5.5v-5.37h2.98v13.56h-2.98Z"/><path class="cls-1" d="M149.99,184.08v-13.56h10.23v2.65h-7.27v2.75h6.4v2.66h-6.4v2.85h7.36v2.65h-10.33Z"/><path class="cls-1" d="M173.08,184.08l-1.24-3.04h-5.74l-1.24,3.04h-3.04l5.81-13.66h2.75l5.81,13.66h-3.12ZM168.97,174.01l-1.8,4.4h3.6l-1.8-4.4Z"/><path class="cls-1" d="M182.69,173.27v10.81h-2.98v-10.81h-4.13v-2.75h11.24v2.75h-4.13Z"/><path class="cls-1" d="M203.16,184.08l-2.91-4.34h-2.34v4.34h-2.98v-13.56h6.2c3.2,0,5.12,1.69,5.12,4.48v.04c0,2.19-1.18,3.57-2.91,4.21l3.31,4.84h-3.49ZM203.21,175.15c0-1.28-.89-1.94-2.34-1.94h-2.96v3.9h3.02c1.45,0,2.29-.78,2.29-1.92v-.04Z"/><path class="cls-1" d="M209.07,184.08v-13.56h2.98v13.56h-2.98Z"/><path class="cls-1" d="M220.27,184.28c-2.05,0-4.13-.72-5.76-2.17l1.76-2.11c1.22,1.01,2.5,1.65,4.05,1.65,1.22,0,1.96-.48,1.96-1.28v-.04c0-.76-.46-1.14-2.73-1.73-2.73-.7-4.5-1.45-4.5-4.15v-.04c0-2.46,1.98-4.09,4.75-4.09,1.98,0,3.66.62,5.04,1.72l-1.55,2.25c-1.2-.83-2.38-1.34-3.53-1.34s-1.74.52-1.74,1.18v.04c0,.89.58,1.18,2.93,1.78,2.75.72,4.3,1.71,4.3,4.07v.04c0,2.69-2.05,4.21-4.98,4.21Z"/><path class="cls-1" d="M236.61,184.08l-4.21-5.77-1.57,1.63v4.15h-2.98v-13.56h2.98v5.93l5.5-5.93h3.6l-5.52,5.75,5.77,7.81h-3.59Z"/><path class="cls-1" d="M257.91,184.08l-1.24-3.04h-5.74l-1.24,3.04h-3.04l5.81-13.66h2.75l5.81,13.66h-3.12ZM253.8,174.01l-1.8,4.4h3.6l-1.8-4.4Z"/><path class="cls-1" d="M267.76,184.28c-2.05,0-4.13-.72-5.76-2.17l1.76-2.11c1.22,1.01,2.5,1.65,4.05,1.65,1.22,0,1.96-.48,1.96-1.28v-.04c0-.76-.46-1.14-2.73-1.73-2.73-.7-4.5-1.45-4.5-4.15v-.04c0-2.46,1.98-4.09,4.75-4.09,1.98,0,3.66.62,5.04,1.72l-1.55,2.25c-1.2-.83-2.38-1.34-3.53-1.34s-1.74.52-1.74,1.18v.04c0,.89.58,1.18,2.93,1.78,2.75.72,4.3,1.71,4.3,4.07v.04c0,2.69-2.05,4.21-4.98,4.21Z"/><path class="cls-1" d="M279.97,184.28c-2.05,0-4.13-.72-5.76-2.17l1.76-2.11c1.22,1.01,2.5,1.65,4.05,1.65,1.22,0,1.96-.48,1.96-1.28v-.04c0-.76-.46-1.14-2.73-1.73-2.73-.7-4.5-1.45-4.5-4.15v-.04c0-2.46,1.98-4.09,4.75-4.09,1.98,0,3.66.62,5.04,1.72l-1.55,2.25c-1.2-.83-2.38-1.34-3.53-1.34s-1.74.52-1.74,1.18v.04c0,.89.58,1.18,2.93,1.78,2.75.72,4.3,1.71,4.3,4.07v.04c0,2.69-2.05,4.21-4.98,4.21Z"/><path class="cls-1" d="M287.55,184.08v-13.56h10.23v2.65h-7.27v2.75h6.4v2.66h-6.4v2.85h7.36v2.65h-10.33Z"/><path class="cls-1" d="M305.36,184.28c-2.05,0-4.13-.72-5.76-2.17l1.76-2.11c1.22,1.01,2.5,1.65,4.05,1.65,1.22,0,1.96-.48,1.96-1.28v-.04c0-.76-.46-1.14-2.73-1.73-2.73-.7-4.5-1.45-4.5-4.15v-.04c0-2.46,1.98-4.09,4.75-4.09,1.98,0,3.66.62,5.04,1.72l-1.55,2.25c-1.2-.83-2.38-1.34-3.53-1.34s-1.74.52-1.74,1.18v.04c0,.89.58,1.18,2.93,1.78,2.75.72,4.3,1.71,4.3,4.07v.04c0,2.69-2.05,4.21-4.98,4.21Z"/><path class="cls-1" d="M317.57,184.28c-2.05,0-4.13-.72-5.75-2.17l1.76-2.11c1.22,1.01,2.5,1.65,4.05,1.65,1.22,0,1.96-.48,1.96-1.28v-.04c0-.76-.46-1.14-2.73-1.73-2.73-.7-4.5-1.45-4.5-4.15v-.04c0-2.46,1.98-4.09,4.75-4.09,1.98,0,3.66.62,5.04,1.72l-1.55,2.25c-1.2-.83-2.38-1.34-3.53-1.34s-1.74.52-1.74,1.18v.04c0,.89.58,1.18,2.93,1.78,2.75.72,4.3,1.71,4.3,4.07v.04c0,2.69-2.05,4.21-4.98,4.21Z"/><path class="cls-1" d="M335.75,184.08v-8.86l-3.82,5.79h-.08l-3.78-5.74v8.8h-2.93v-13.56h3.22l3.57,5.74,3.57-5.74h3.22v13.56h-2.96Z"/><path class="cls-1" d="M341.97,184.08v-13.56h10.23v2.65h-7.27v2.75h6.4v2.66h-6.4v2.85h7.36v2.65h-10.33Z"/><path class="cls-1" d="M364.47,184.08l-6.57-8.62v8.62h-2.95v-13.56h2.75l6.36,8.35v-8.35h2.95v13.56h-2.54Z"/><path class="cls-1" d="M376.41,173.27v10.81h-2.98v-10.81h-4.13v-2.75h11.24v2.75h-4.13Z"/><path class="cls-1" d="M391.62,173.23v2.89h6.47v2.71h-6.47v5.25h-2.98v-13.56h10.33v2.71h-7.34Z"/><path class="cls-1" d="M407.94,184.32c-4.19,0-7.19-3.12-7.19-6.98v-.04c0-3.86,3.04-7.01,7.23-7.01s7.19,3.12,7.19,6.98v.04c0,3.86-3.04,7.01-7.23,7.01ZM412.05,177.3c0-2.33-1.71-4.26-4.11-4.26s-4.07,1.9-4.07,4.22v.04c0,2.33,1.71,4.26,4.11,4.26s4.07-1.9,4.07-4.22v-.04Z"/><path class="cls-1" d="M426.06,184.08l-2.91-4.34h-2.34v4.34h-2.98v-13.56h6.2c3.2,0,5.12,1.69,5.12,4.48v.04c0,2.19-1.18,3.57-2.91,4.21l3.31,4.84h-3.49ZM426.12,175.15c0-1.28-.89-1.94-2.34-1.94h-2.96v3.9h3.02c1.45,0,2.29-.78,2.29-1.92v-.04Z"/><path class="cls-1" d="M448.26,184.08v-8.86l-3.82,5.79h-.08l-3.78-5.74v8.8h-2.93v-13.56h3.22l3.57,5.74,3.57-5.74h3.22v13.56h-2.96Z"/><path class="cls-1" d="M464.58,184.08l-1.24-3.04h-5.74l-1.24,3.04h-3.04l5.81-13.66h2.75l5.81,13.66h-3.12ZM460.47,174.01l-1.8,4.4h3.6l-1.8-4.4Z"/><path class="cls-1" d="M479.3,184.08l-6.57-8.62v8.62h-2.95v-13.56h2.75l6.36,8.35v-8.35h2.95v13.56h-2.54Z"/><path class="cls-1" d="M490.76,184.3c-3.64,0-5.87-2.04-5.87-6.03v-7.75h2.98v7.67c0,2.21,1.1,3.35,2.93,3.35s2.93-1.1,2.93-3.26v-7.77h2.98v7.65c0,4.11-2.31,6.12-5.95,6.12Z"/><path class="cls-1" d="M509.37,184.08l-1.24-3.04h-5.74l-1.24,3.04h-3.04l5.81-13.66h2.75l5.81,13.66h-3.12ZM505.26,174.01l-1.8,4.4h3.6l-1.8-4.4Z"/><path class="cls-1" d="M514.58,184.08v-13.56h2.98v10.85h6.76v2.71h-9.75Z"/><path class="cls-1" d="M532.39,184.08v-13.56h2.98v10.85h6.76v2.71h-9.75Z"/><path class="cls-1" d="M554.49,184.08l-1.24-3.04h-5.74l-1.24,3.04h-3.04l5.81-13.66h2.75l5.81,13.66h-3.12ZM550.38,174.01l-1.8,4.4h3.6l-1.8-4.4Z"/><path class="cls-1" d="M566.15,184.08h-6.45v-13.56h6.3c2.77,0,4.48,1.38,4.48,3.51v.04c0,1.53-.81,2.38-1.78,2.93,1.57.6,2.54,1.51,2.54,3.33v.04c0,2.48-2.02,3.72-5.08,3.72ZM567.51,174.53c0-.89-.7-1.39-1.96-1.39h-2.95v2.87h2.75c1.32,0,2.15-.43,2.15-1.43v-.04ZM568.27,179.96c0-.91-.68-1.47-2.21-1.47h-3.45v2.98h3.55c1.32,0,2.11-.46,2.11-1.47v-.04Z"/><path class="cls-1" d="M580.28,184.32c-4.19,0-7.19-3.12-7.19-6.98v-.04c0-3.86,3.04-7.01,7.23-7.01s7.19,3.12,7.19,6.98v.04c0,3.86-3.04,7.01-7.23,7.01ZM584.39,177.3c0-2.33-1.71-4.26-4.11-4.26s-4.07,1.9-4.07,4.22v.04c0,2.33,1.71,4.26,4.11,4.26s4.07-1.9,4.07-4.22v-.04Z"/><path class="cls-1" d="M598.4,184.08l-2.91-4.34h-2.34v4.34h-2.98v-13.56h6.2c3.2,0,5.12,1.69,5.12,4.48v.04c0,2.19-1.18,3.57-2.91,4.21l3.31,4.84h-3.49ZM598.46,175.15c0-1.28-.89-1.94-2.34-1.94h-2.96v3.9h3.02c1.45,0,2.29-.78,2.29-1.92v-.04Z"/><path class="cls-1" d="M610.19,19.94H179.38l3.14-16.13,416.69-.77c6.07,0,10.98,16.9,10.98,16.9Z"/></svg>