<svg version="1.1" id="Layer_1" xmlns="http://www.w3.org/2000/svg" xmlns:xlink="http://www.w3.org/1999/xlink" x="0px" y="0px"
	 width="100%" viewBox="0 0 512 512" enable-background="new 0 0 512 512" xml:space="preserve">
<path fill="#000000" opacity="1.000000" stroke="none" 
	d="
M1.000000,428.399994 
	C14.499822,424.919434 27.345997,419.763397 40.433029,415.404541 
	C120.970711,388.580170 201.451630,361.585266 281.943298,334.622833 
	C331.984100,317.860596 382.009552,301.052490 432.044525,284.272797 
	C441.145966,281.220520 442.322266,281.633331 448.647003,290.069946 
	C445.960358,292.763641 442.214905,293.178711 438.901733,294.295563 
	C407.831604,304.769165 376.744904,315.195435 345.595093,325.428680 
	C340.937592,326.958740 339.637634,328.608765 341.085754,333.806366 
	C348.940552,361.998688 337.878418,387.583282 312.255951,402.102722 
	C302.468475,407.648987 291.818024,410.971375 281.312714,414.712097 
	C261.464935,421.779480 242.774597,431.254272 224.722366,442.053589 
	C218.141068,445.990692 211.157837,449.113647 204.194992,452.329010 
	C192.934494,457.528900 182.815094,455.433868 173.098938,448.816498 
	C159.251480,439.385376 148.741623,426.689423 138.853760,413.420135 
	C135.968353,409.548004 133.060257,405.657928 130.595215,401.518463 
	C128.638046,398.231903 126.766518,397.517181 122.966286,398.843567 
	C86.037926,411.732361 49.026207,424.382294 12.039966,437.105286 
	C4.384582,439.738708 4.387818,439.748108 1.178147,432.305939 
	C1.000000,430.933319 1.000000,429.866669 1.000000,428.399994 
z"/>
<path fill="#000000" opacity="1.000000" stroke="none" 
	d="
M513.000000,439.533875 
	C509.393555,448.000641 504.111847,454.027100 494.867279,455.379028 
	C482.680267,457.161255 472.537659,450.787659 469.653839,438.771149 
	C466.634003,426.187836 464.355804,413.427948 461.601990,400.778259 
	C460.984650,397.942627 460.694580,394.839630 458.310669,392.613892 
	C455.820496,392.924133 454.697174,394.958771 453.186737,396.403107 
	C438.749786,410.208496 421.637054,419.161102 402.260803,423.450958 
	C392.310638,425.653900 382.271606,418.993744 378.694275,409.136993 
	C375.144226,399.355225 378.828003,388.057098 387.287292,382.751343 
	C390.279755,380.874512 393.612213,379.812408 396.909546,378.651550 
	C403.371704,376.376465 409.562347,373.533813 415.232117,369.646912 
	C427.292999,361.378662 430.862518,351.866638 427.078094,337.754517 
	C425.037140,330.143768 421.671661,323.104340 417.516052,316.417328 
	C415.876434,313.778870 413.777222,311.366302 412.905457,308.317047 
	C414.430511,306.193451 416.748047,306.118439 418.724548,305.442841 
	C429.117249,301.890533 439.552216,298.461212 449.931244,294.869965 
	C452.631226,293.935760 455.013580,293.597412 457.320801,295.736267 
	C458.149963,296.504944 459.283783,297.293427 460.347778,297.403503 
	C466.972168,298.088837 469.473267,303.177032 472.356293,308.072449 
	C491.586151,340.724823 502.926422,376.213135 510.325836,413.134460 
	C511.074402,416.869690 511.919525,420.585602 512.859924,424.655243 
	C513.000000,429.689240 513.000000,434.378510 513.000000,439.533875 
z"/>
<path fill="#000000" opacity="1.000000" stroke="none" 
	d="
M264.823669,335.987732 
	C225.649384,349.136658 186.838440,362.125916 148.032181,375.129242 
	C141.696396,377.252258 141.713272,377.278503 139.617538,371.045959 
	C128.008057,336.520325 116.456123,301.975006 104.703468,267.498138 
	C103.267532,263.285767 103.786926,261.460785 108.317108,259.959229 
	C162.959152,241.848022 217.549942,223.581177 272.087585,205.157974 
	C276.489532,203.670975 278.016846,204.496338 279.452850,208.836502 
	C290.838318,243.247650 302.470093,277.577362 314.036133,311.928711 
	C316.331818,318.746887 316.348541,318.731323 309.656128,320.966156 
	C294.831848,325.916382 280.010895,330.876587 264.823669,335.987732 
z"/>
<path fill="#000000" opacity="1.000000" stroke="none" 
	d="
M391.927612,179.124084 
	C394.700989,170.472794 397.684540,162.379562 403.427338,155.614838 
	C411.048645,146.637375 420.695831,141.599228 432.445679,141.064026 
	C446.378906,140.429367 457.371246,151.915543 458.387207,167.234711 
	C459.026672,176.876373 456.763794,186.044998 454.954559,195.323669 
	C452.827545,206.232010 450.386597,217.083481 449.183228,228.157104 
	C449.007477,229.774261 448.422455,231.346954 447.826050,233.748840 
	C444.604645,230.307007 443.797211,226.429428 442.700745,222.847656 
	C438.364136,208.681702 439.108704,194.689835 444.324677,180.811127 
	C448.082825,170.811462 444.437103,161.410660 435.739258,157.623505 
	C426.922607,153.784622 417.146393,157.196960 413.098755,166.310089 
	C406.423676,181.338943 404.169128,197.218704 405.716980,213.592636 
	C407.996857,237.710495 418.167206,258.179504 434.632904,275.710968 
	C435.066559,276.172699 435.304291,276.818451 435.591797,277.307648 
	C434.847290,279.618103 432.795074,279.718109 431.157288,280.275024 
	C420.609161,283.861938 409.996582,287.263092 399.490479,290.967285 
	C396.270660,292.102478 394.260193,291.463867 392.276733,288.758270 
	C387.414154,282.125458 384.796692,274.657257 383.823822,266.624054 
	C380.239227,237.024338 382.267395,207.913681 391.927612,179.124084 
z"/>
<path fill="#000000" opacity="1.000000" stroke="none" 
	d="
M428.514282,115.234497 
	C417.435303,90.504433 431.950195,65.064392 455.016937,59.300838 
	C477.339905,53.723129 499.250763,68.098633 503.862274,91.773232 
	C507.950928,112.763855 492.043030,134.458359 470.426056,137.372116 
	C452.698395,139.761597 437.403107,131.777771 428.514282,115.234497 
z"/>
<path fill="#000000" opacity="1.000000" stroke="none" 
	d="
M419.482117,162.335449 
	C426.986206,157.859970 432.508575,157.909683 437.764343,162.266373 
	C442.738159,166.389328 444.410339,172.438690 442.029022,178.936478 
	C431.304779,208.199722 438.574005,233.390244 459.215607,255.596344 
	C464.223816,260.984161 470.016113,265.465698 475.830109,269.927216 
	C481.041290,273.926117 482.575775,279.429199 481.090607,285.521210 
	C479.722229,291.134216 475.724060,294.591827 470.058411,295.909821 
	C465.898712,296.877502 462.032654,295.742249 458.709625,293.366577 
	C432.679993,274.757996 414.175293,251.059402 409.112122,218.583847 
	C406.525177,201.990921 408.546295,185.782043 414.444611,170.077606 
	C415.492065,167.288681 416.716400,164.507019 419.482117,162.335449 
z"/>
<path fill="#000000" opacity="1.000000" stroke="none" 
	d="
M499.283081,268.927673 
	C500.766724,272.152100 500.084076,274.045959 496.886108,274.835571 
	C495.926605,275.072449 494.993866,275.418671 494.050232,275.718933 
	C482.625916,279.354248 486.135712,280.411163 479.869812,268.693237 
	C484.741272,266.253540 489.912811,264.579041 495.135284,263.444550 
	C498.617859,262.688049 497.959290,266.693909 499.283081,268.927673 
z"/>
</svg>