<?xml version="1.0" encoding="UTF-8"?><svg id="Layer_1" xmlns="http://www.w3.org/2000/svg" viewBox="0 0 293.59 265.83"><circle cx="65.39" cy="61.84" r="22.49" transform="translate(-9.69 111.46) rotate(-76.86)" fill="currentColor"/><path fill="currentColor" d="M42.28,108.33l-.02-.15c-.46-5.59,3.64-10.43,9.14-10.88.28-.02.56-.03.83-.03,5.14,0,9.51,4.01,9.95,9.13.02.16.04.29.06.48.05.36.16,1.09.37,2.08.36,1.7,1.05,4.36,2.29,7.34.18.43.39.84.58,1.26.44-1.18.88-2.34,1.28-3.45,4.4-9.38,2.57-21.73-5.53-25.18-8.09-3.44-21.05-.81-28.32,12.85-9.9,18.85-13.4,31.59-14.35,53.94.24,7.18,2.42,11.86,5.55,14.96.14.74.34,1.48.63,2.21h0s0,.02.01.04c.04.1.16.44.34,1.03.66,2.2,2,7.61,2,15.15-.09,13.35-3.84,33.18-23.94,55.92-4.59,5.16-4.12,13.06,1.04,17.65,2.38,2.12,5.35,3.16,8.3,3.16,3.45,0,6.88-1.42,9.35-4.2,20.44-22.89,27.99-45.65,29.8-63.3.31.52.62,1.03.93,1.57,6.89,11.98,13.76,29.5,16.15,54.42.62,6.47,6.06,11.31,12.43,11.31.4,0,.8-.02,1.2-.06,6.87-.65,11.91-6.76,11.26-13.63-3.18-33.49-13.84-56.96-24.04-71.99-6.11-9.02-12-15-15.97-18.5.43-6.75,1.89-13.69,3.81-20.43-2.31-2.43-4.4-5.1-6.26-8.01-6.75-10.63-8.44-20.81-8.86-24.69Z"/><path fill="currentColor" d="M112.21,147.61c-.18-4.41-3.9-7.85-8.31-7.67-1.01.04-1.99.06-2.94.06-10.16-.01-17.38-2.24-22.8-5.31-8.09-4.61-12.55-11.52-15.1-17.61-1.26-3.02-1.99-5.77-2.4-7.7-.2-.96-.33-1.73-.39-2.21-.03-.24-.06-.42-.06-.51,0-.04,0-.06,0-.07h0s0,0,0,0c-.38-4.39-4.23-7.64-8.62-7.28-4.4.36-7.68,4.22-7.32,8.63h0c.1.72.97,12.02,8.58,24.02,3.81,5.97,9.42,12.1,17.4,16.64,7.95,4.55,18.15,7.42,30.65,7.42h.08c1.18,0,2.37-.03,3.58-.07,4.41-.18,7.85-3.9,7.67-8.32Z"/><path fill="currentColor" d="M247.58,232.6c0,1.53-.1,3.02-.28,4.5h14.61s0-99.48,0-99.48h-96.02v88.59c1.04,3.69,3.4,6.77,6.59,8.7-.05-.77-.08-1.54-.08-2.32,0-13.94,8.52-37.1,39.05-37.1,24.93,0,36.13,22.55,36.13,37.11Z"/><path fill="currentColor" d="M136.94,81.82h18.46c1.51,0,2.73-1.23,2.73-2.73v-7.38c0-4.65,3.78-8.43,8.43-8.43s8.43,3.78,8.43,8.43v7.38c0,1.51,1.23,2.73,2.73,2.73h25c1.51,0,2.73-1.23,2.73-2.73v-7.38c0-4.65,3.78-8.43,8.43-8.43s8.43,3.78,8.43,8.43v7.38c0,1.51,1.23,2.73,2.73,2.73h25c1.51,0,2.73-1.23,2.73-2.73v-7.38c0-4.65,3.78-8.43,8.43-8.43s8.43,3.78,8.43,8.43v7.38c0,1.51,1.23,2.73,2.73,2.73h18.46c1.51,0,2.73-1.23,2.73-2.73v-26.09h-159.38v26.07c0,1.52,1.23,2.74,2.73,2.74h0Z"/><path fill="currentColor" d="M226.05,6.23c0-3.44-2.79-6.23-6.23-6.23h-11.84c-3.44,0-6.23,2.79-6.23,6.23v2.83h24.3v-2.83Z"/><path fill="currentColor" d="M237.9,14.49c-1.03-.7-2.23-1.06-3.48-1.06h-41.02c-1.25,0-2.45.36-3.48,1.06l-50.76,34.17h149.47l-50.74-34.17Z"/><path fill="currentColor" d="M209.99,199.38c-18.33,0-33.23,14.91-33.23,33.23s14.9,33.23,33.23,33.23,33.23-14.91,33.23-33.23-14.9-33.23-33.23-33.23ZM234.9,234.79h-12.53c-.32,1.85-1.05,3.55-2.09,5.04l8.87,8.87c.85.85.85,2.23,0,3.08-.43.43-.99.63-1.54.63s-1.11-.22-1.54-.63l-8.87-8.87c-1.47,1.04-3.19,1.77-5.04,2.09v12.53c0,1.2-.98,2.18-2.18,2.18s-2.18-.98-2.18-2.18v-12.53c-1.85-.32-3.55-1.05-5.04-2.09l-8.87,8.87c-.43.43-.99.63-1.54.63s-1.11-.22-1.54-.63c-.85-.85-.85-2.23,0-3.08l8.87-8.87c-1.04-1.47-1.77-3.19-2.09-5.04h-12.53c-1.2,0-2.18-.98-2.18-2.18s.98-2.18,2.18-2.18h12.53c.32-1.85,1.05-3.55,2.09-5.04l-8.87-8.87c-.85-.85-.85-2.23,0-3.08.85-.85,2.23-.85,3.08,0l8.87,8.87c1.47-1.04,3.19-1.77,5.04-2.09v-12.53c0-1.2.98-2.18,2.18-2.18s2.18.98,2.18,2.18v12.53c1.85.32,3.55,1.05,5.04,2.09l8.87-8.87c.85-.85,2.23-.85,3.08,0,.85.85.85,2.23,0,3.08l-8.89,8.87c1.04,1.47,1.77,3.19,2.09,5.04h12.53c1.2,0,2.18.98,2.18,2.18s-.98,2.18-2.18,2.18Z"/><path fill="currentColor" d="M213.9,67.63c-2.24,0-4.07,1.83-4.07,4.07v7.38c0,3.15-2.07,5.83-4.91,6.74v56.36h17.97v-56.36c-2.85-.92-4.91-3.59-4.91-6.74v-7.38c0-2.24-1.84-4.07-4.08-4.07h0Z"/><path fill="currentColor" d="M267.74,242.97c-.98-.98-2.26-1.51-3.64-1.51h-17.57c-.89,3.68-2.33,7.14-4.21,10.31h21.79c2.85,0,5.16-2.32,5.16-5.16-.02-1.38-.55-2.68-1.53-3.64h0Z"/><path fill="currentColor" d="M161.6,227.08l-16.19-61.61c-1.99-7.6-7.92-13.73-15.45-15.98l-23.7-7.09c-2.72-.81-5.6.74-6.42,3.46-.39,1.32-.25,2.71.4,3.93.65,1.21,1.74,2.1,3.06,2.49l6.75,2.02,4.36,1.31,12.59,3.77c4.11,1.24,7.34,4.57,8.43,8.72l16.19,61.61c3.19,12.14,13.67,20.85,25.98,21.95-2.08-3.52-3.6-7.41-4.44-11.55-5.72-2.26-10-7.04-11.57-13.03h0Z"/></svg>
