<?xml version="1.0" encoding="UTF-8"?><svg id="Layer_1" xmlns="http://www.w3.org/2000/svg" xmlns:xlink="http://www.w3.org/1999/xlink" viewBox="0 0 427.38 147.84"><defs><style>.cls-1{fill:none;}.cls-2{fill:#f7d1a4;}.cls-3{fill:#98341d;}.cls-4{clip-path:url(#clippath);}</style><clipPath id="clippath"><rect class="cls-1" x="-193.04" y="-1540.3" width="2103.24" height="901.01"/></clipPath></defs><g class="cls-4"><path class="cls-3" d="M239.79,138.14c0,3.26,2.66,5.93,5.92,5.93s5.92-2.67,5.92-5.93-2.66-5.93-5.92-5.93-5.92,2.67-5.92,5.93Z"/><path class="cls-3" d="M216.13,138.14c0,3.26,2.66,5.93,5.92,5.93s5.92-2.67,5.92-5.93-2.66-5.93-5.92-5.93-5.92,2.67-5.92,5.93Z"/><path class="cls-3" d="M192.47,138.14c0,3.26,2.66,5.93,5.92,5.93s5.92-2.67,5.92-5.93-2.66-5.93-5.92-5.93-5.92,2.67-5.92,5.93Z"/><path class="cls-3" d="M168.81,138.14c0,3.26,2.66,5.93,5.92,5.93s5.92-2.67,5.92-5.93-2.66-5.93-5.92-5.93-5.92,2.67-5.92,5.93Z"/><path class="cls-3" d="M145.14,138.14c0,3.26,2.66,5.93,5.92,5.93s5.92-2.67,5.92-5.93-2.66-5.93-5.92-5.93-5.92,2.67-5.92,5.93Z"/><path class="cls-3" d="M121.48,138.14c0,3.26,2.66,5.93,5.92,5.93s5.92-2.67,5.92-5.93-2.66-5.93-5.92-5.93-5.92,2.67-5.92,5.93Z"/><path class="cls-3" d="M97.82,138.14c0,3.26,2.66,5.93,5.92,5.93s5.92-2.67,5.92-5.93-2.66-5.93-5.92-5.93-5.92,2.67-5.92,5.93Z"/><path class="cls-3" d="M74.16,138.14c0,3.26,2.66,5.93,5.92,5.93s5.92-2.67,5.92-5.93-2.66-5.93-5.92-5.93-5.92,2.67-5.92,5.93Z"/><path class="cls-3" d="M50.5,138.14c0,3.26,2.66,5.93,5.92,5.93s5.92-2.67,5.92-5.93-2.66-5.93-5.92-5.93-5.92,2.67-5.92,5.93Z"/><path class="cls-3" d="M239.79,114.42c0,3.26,2.66,5.93,5.92,5.93s5.92-2.67,5.92-5.93-2.66-5.93-5.92-5.93-5.92,2.67-5.92,5.93Z"/><path class="cls-3" d="M216.13,114.42c0,3.26,2.66,5.93,5.92,5.93s5.92-2.67,5.92-5.93-2.66-5.93-5.92-5.93-5.92,2.67-5.92,5.93Z"/><path class="cls-3" d="M192.47,114.42c0,3.26,2.66,5.93,5.92,5.93s5.92-2.67,5.92-5.93-2.66-5.93-5.92-5.93-5.92,2.67-5.92,5.93Z"/><path class="cls-3" d="M168.81,114.42c0,3.26,2.66,5.93,5.92,5.93s5.92-2.67,5.92-5.93-2.66-5.93-5.92-5.93-5.92,2.67-5.92,5.93Z"/><path class="cls-3" d="M145.14,114.42c0,3.26,2.66,5.93,5.92,5.93s5.92-2.67,5.92-5.93-2.66-5.93-5.92-5.93-5.92,2.67-5.92,5.93Z"/><path class="cls-3" d="M121.48,114.42c0,3.26,2.66,5.93,5.92,5.93s5.92-2.67,5.92-5.93-2.66-5.93-5.92-5.93-5.92,2.67-5.92,5.93Z"/><path class="cls-3" d="M97.82,114.42c0,3.26,2.66,5.93,5.92,5.93s5.92-2.67,5.92-5.93-2.66-5.93-5.92-5.93-5.92,2.67-5.92,5.93Z"/><path class="cls-3" d="M74.16,114.42c0,3.26,2.66,5.93,5.92,5.93s5.92-2.67,5.92-5.93-2.66-5.93-5.92-5.93-5.92,2.67-5.92,5.93Z"/><path class="cls-3" d="M50.5,114.42c0,3.26,2.66,5.93,5.92,5.93s5.92-2.67,5.92-5.93-2.66-5.93-5.92-5.93-5.92,2.67-5.92,5.93Z"/><path class="cls-3" d="M239.79,90.7c0,3.26,2.66,5.93,5.92,5.93s5.92-2.67,5.92-5.93-2.66-5.93-5.92-5.93-5.92,2.67-5.92,5.93Z"/><path class="cls-3" d="M216.13,90.7c0,3.26,2.66,5.93,5.92,5.93s5.92-2.67,5.92-5.93-2.66-5.93-5.92-5.93-5.92,2.67-5.92,5.93Z"/><path class="cls-3" d="M192.47,90.7c0,3.26,2.66,5.93,5.92,5.93s5.92-2.67,5.92-5.93-2.66-5.93-5.92-5.93-5.92,2.67-5.92,5.93Z"/><path class="cls-3" d="M168.81,90.7c0,3.26,2.66,5.93,5.92,5.93s5.92-2.67,5.92-5.93-2.66-5.93-5.92-5.93-5.92,2.67-5.92,5.93Z"/><path class="cls-3" d="M145.14,90.7c0,3.26,2.66,5.93,5.92,5.93s5.92-2.67,5.92-5.93-2.66-5.93-5.92-5.93-5.92,2.67-5.92,5.93Z"/><path class="cls-3" d="M121.48,90.7c0,3.26,2.66,5.93,5.92,5.93s5.92-2.67,5.92-5.93-2.66-5.93-5.92-5.93-5.92,2.67-5.92,5.93Z"/><path class="cls-3" d="M97.82,90.7c0,3.26,2.66,5.93,5.92,5.93s5.92-2.67,5.92-5.93-2.66-5.93-5.92-5.93-5.92,2.67-5.92,5.93Z"/><path class="cls-3" d="M74.16,90.7c0,3.26,2.66,5.93,5.92,5.93s5.92-2.67,5.92-5.93-2.66-5.93-5.92-5.93-5.92,2.67-5.92,5.93Z"/><path class="cls-3" d="M50.5,90.7c0,3.26,2.66,5.93,5.92,5.93s5.92-2.67,5.92-5.93-2.66-5.93-5.92-5.93-5.92,2.67-5.92,5.93Z"/><path class="cls-3" d="M26.84,90.7c0,3.26,2.66,5.93,5.92,5.93s5.92-2.67,5.92-5.93-2.66-5.93-5.92-5.93-5.92,2.67-5.92,5.93Z"/><path class="cls-3" d="M287.12,66.97c0,3.26,2.66,5.93,5.92,5.93s5.92-2.67,5.92-5.93-2.66-5.93-5.92-5.93-5.92,2.67-5.92,5.93Z"/><path class="cls-3" d="M263.45,66.97c0,3.26,2.66,5.93,5.92,5.93s5.92-2.67,5.92-5.93-2.66-5.93-5.92-5.93-5.92,2.67-5.92,5.93Z"/><path class="cls-3" d="M239.79,66.97c0,3.26,2.66,5.93,5.92,5.93s5.92-2.67,5.92-5.93-2.66-5.93-5.92-5.93-5.92,2.67-5.92,5.93Z"/><path class="cls-3" d="M216.13,66.97c0,3.26,2.66,5.93,5.92,5.93s5.92-2.67,5.92-5.93-2.66-5.93-5.92-5.93-5.92,2.67-5.92,5.93Z"/><path class="cls-3" d="M192.47,66.97c0,3.26,2.66,5.93,5.92,5.93s5.92-2.67,5.92-5.93-2.66-5.93-5.92-5.93-5.92,2.67-5.92,5.93Z"/><path class="cls-3" d="M168.81,66.97c0,3.26,2.66,5.93,5.92,5.93s5.92-2.67,5.92-5.93-2.66-5.93-5.92-5.93-5.92,2.67-5.92,5.93Z"/><path class="cls-3" d="M145.14,66.97c0,3.26,2.66,5.93,5.92,5.93s5.92-2.67,5.92-5.93-2.66-5.93-5.92-5.93-5.92,2.67-5.92,5.93Z"/><path class="cls-3" d="M121.48,66.97c0,3.26,2.66,5.93,5.92,5.93s5.92-2.67,5.92-5.93-2.66-5.93-5.92-5.93-5.92,2.67-5.92,5.93Z"/><path class="cls-3" d="M97.82,66.97c0,3.26,2.66,5.93,5.92,5.93s5.92-2.67,5.92-5.93-2.66-5.93-5.92-5.93-5.92,2.67-5.92,5.93Z"/><path class="cls-3" d="M74.16,66.97c0,3.26,2.66,5.93,5.92,5.93s5.92-2.67,5.92-5.93-2.66-5.93-5.92-5.93-5.92,2.67-5.92,5.93Z"/><path class="cls-3" d="M50.5,66.97c0,3.26,2.66,5.93,5.92,5.93s5.92-2.67,5.92-5.93-2.66-5.93-5.92-5.93-5.92,2.67-5.92,5.93Z"/><path class="cls-3" d="M26.84,66.97c0,3.26,2.66,5.93,5.92,5.93s5.92-2.67,5.92-5.93-2.66-5.93-5.92-5.93-5.92,2.67-5.92,5.93Z"/><path class="cls-3" d="M287.12,43.25c0,3.26,2.66,5.93,5.92,5.93s5.92-2.67,5.92-5.93-2.66-5.93-5.92-5.93-5.92,2.67-5.92,5.93Z"/><path class="cls-3" d="M263.45,43.25c0,3.26,2.66,5.93,5.92,5.93s5.92-2.67,5.92-5.93-2.66-5.93-5.92-5.93-5.92,2.67-5.92,5.93Z"/><path class="cls-3" d="M239.79,43.25c0,3.26,2.66,5.93,5.92,5.93s5.92-2.67,5.92-5.93-2.66-5.93-5.92-5.93-5.92,2.67-5.92,5.93Z"/><path class="cls-3" d="M216.13,43.25c0,3.26,2.66,5.93,5.92,5.93s5.92-2.67,5.92-5.93-2.66-5.93-5.92-5.93-5.92,2.67-5.92,5.93Z"/><path class="cls-3" d="M192.47,43.25c0,3.26,2.66,5.93,5.92,5.93s5.92-2.67,5.92-5.93-2.66-5.93-5.92-5.93-5.92,2.67-5.92,5.93Z"/><path class="cls-3" d="M168.81,43.25c0,3.26,2.66,5.93,5.92,5.93s5.92-2.67,5.92-5.93-2.66-5.93-5.92-5.93-5.92,2.67-5.92,5.93Z"/><path class="cls-3" d="M145.14,43.25c0,3.26,2.66,5.93,5.92,5.93s5.92-2.67,5.92-5.93-2.66-5.93-5.92-5.93-5.92,2.67-5.92,5.93Z"/><path class="cls-3" d="M121.48,43.25c0,3.26,2.66,5.93,5.92,5.93s5.92-2.67,5.92-5.93-2.66-5.93-5.92-5.93-5.92,2.67-5.92,5.93Z"/><path class="cls-3" d="M97.82,43.25c0,3.26,2.66,5.93,5.92,5.93s5.92-2.67,5.92-5.93-2.66-5.93-5.92-5.93-5.92,2.67-5.92,5.93Z"/><path class="cls-3" d="M74.16,43.25c0,3.26,2.66,5.93,5.92,5.93s5.92-2.67,5.92-5.93-2.66-5.93-5.92-5.93-5.92,2.67-5.92,5.93Z"/><path class="cls-3" d="M50.5,43.25c0,3.26,2.66,5.93,5.92,5.93s5.92-2.67,5.92-5.93-2.66-5.93-5.92-5.93-5.92,2.67-5.92,5.93Z"/><path class="cls-3" d="M26.84,43.25c0,3.26,2.66,5.93,5.92,5.93s5.92-2.67,5.92-5.93-2.66-5.93-5.92-5.93-5.92,2.67-5.92,5.93Z"/><path class="cls-3" d="M287.12,19.53c0,3.26,2.66,5.93,5.92,5.93s5.92-2.67,5.92-5.93-2.66-5.93-5.92-5.93-5.92,2.67-5.92,5.93Z"/><path class="cls-3" d="M263.45,19.53c0,3.26,2.66,5.93,5.92,5.93s5.92-2.67,5.92-5.93-2.66-5.93-5.92-5.93-5.92,2.67-5.92,5.93Z"/><path class="cls-3" d="M239.79,19.53c0,3.26,2.66,5.93,5.92,5.93s5.92-2.67,5.92-5.93-2.66-5.93-5.92-5.93-5.92,2.67-5.92,5.93Z"/><path class="cls-3" d="M216.13,19.53c0,3.26,2.66,5.93,5.92,5.93s5.92-2.67,5.92-5.93-2.66-5.93-5.92-5.93-5.92,2.67-5.92,5.93Z"/><path class="cls-3" d="M192.47,19.53c0,3.26,2.66,5.93,5.92,5.93s5.92-2.67,5.92-5.93-2.66-5.93-5.92-5.93-5.92,2.67-5.92,5.93Z"/><path class="cls-3" d="M168.81,19.53c0,3.26,2.66,5.93,5.92,5.93s5.92-2.67,5.92-5.93-2.66-5.93-5.92-5.93-5.92,2.67-5.92,5.93Z"/><path class="cls-3" d="M145.14,19.53c0,3.26,2.66,5.93,5.92,5.93s5.92-2.67,5.92-5.93-2.66-5.93-5.92-5.93-5.92,2.67-5.92,5.93Z"/><path class="cls-3" d="M121.48,19.53c0,3.26,2.66,5.93,5.92,5.93s5.92-2.67,5.92-5.93-2.66-5.93-5.92-5.93-5.92,2.67-5.92,5.93Z"/><path class="cls-3" d="M97.82,19.53c0,3.26,2.66,5.93,5.92,5.93s5.92-2.67,5.92-5.93-2.66-5.93-5.92-5.93-5.92,2.67-5.92,5.93Z"/><path class="cls-3" d="M74.16,19.53c0,3.26,2.66,5.93,5.92,5.93s5.92-2.67,5.92-5.93-2.66-5.93-5.92-5.93-5.92,2.67-5.92,5.93Z"/><path class="cls-3" d="M50.5,19.53c0,3.26,2.66,5.93,5.92,5.93s5.92-2.67,5.92-5.93-2.66-5.93-5.92-5.93-5.92,2.67-5.92,5.93Z"/><path class="cls-3" d="M26.84,19.53c0,3.26,2.66,5.93,5.92,5.93s5.92-2.67,5.92-5.93-2.66-5.93-5.92-5.93-5.92,2.67-5.92,5.93Z"/><path class="cls-3" d="M3.17,19.53c0,3.26,2.66,5.93,5.92,5.93s5.92-2.67,5.92-5.93-2.66-5.93-5.92-5.93-5.92,2.67-5.92,5.93Z"/><path class="cls-3" d="M287.12-4.2c0,3.26,2.66,5.93,5.92,5.93s5.92-2.67,5.92-5.93-2.66-5.93-5.92-5.93-5.92,2.67-5.92,5.93Z"/><path class="cls-3" d="M263.45-4.2c0,3.26,2.66,5.93,5.92,5.93s5.92-2.67,5.92-5.93-2.66-5.93-5.92-5.93-5.92,2.67-5.92,5.93Z"/><path class="cls-3" d="M239.79-4.2c0,3.26,2.66,5.93,5.92,5.93s5.92-2.67,5.92-5.93-2.66-5.93-5.92-5.93-5.92,2.67-5.92,5.93Z"/><path class="cls-3" d="M216.13-4.2c0,3.26,2.66,5.93,5.92,5.93s5.92-2.67,5.92-5.93-2.66-5.93-5.92-5.93-5.92,2.67-5.92,5.93Z"/><path class="cls-3" d="M192.47-4.2c0,3.26,2.66,5.93,5.92,5.93s5.92-2.67,5.92-5.93-2.66-5.93-5.92-5.93-5.92,2.67-5.92,5.93Z"/><path class="cls-3" d="M168.81-4.2c0,3.26,2.66,5.93,5.92,5.93s5.92-2.67,5.92-5.93-2.66-5.93-5.92-5.93-5.92,2.67-5.92,5.93Z"/><path class="cls-3" d="M145.14-4.2c0,3.26,2.66,5.93,5.92,5.93s5.92-2.67,5.92-5.93-2.66-5.93-5.92-5.93-5.92,2.67-5.92,5.93Z"/><path class="cls-3" d="M121.48-4.2c0,3.26,2.66,5.93,5.92,5.93s5.92-2.67,5.92-5.93-2.66-5.93-5.92-5.93-5.92,2.67-5.92,5.93Z"/><path class="cls-3" d="M97.82-4.2c0,3.26,2.66,5.93,5.92,5.93s5.92-2.67,5.92-5.93-2.66-5.93-5.92-5.93-5.92,2.67-5.92,5.93Z"/><path class="cls-3" d="M74.16-4.2c0,3.26,2.66,5.93,5.92,5.93s5.92-2.67,5.92-5.93-2.66-5.93-5.92-5.93-5.92,2.67-5.92,5.93Z"/><path class="cls-3" d="M50.5-4.2c0,3.26,2.66,5.93,5.92,5.93s5.92-2.67,5.92-5.93-2.66-5.93-5.92-5.93-5.92,2.67-5.92,5.93Z"/><path class="cls-3" d="M26.84-4.2c0,3.26,2.66,5.93,5.92,5.93s5.92-2.67,5.92-5.93-2.66-5.93-5.92-5.93-5.92,2.67-5.92,5.93Z"/><path class="cls-3" d="M3.17-4.2C3.17-.93,5.84,1.73,9.09,1.73s5.92-2.67,5.92-5.93-2.66-5.93-5.92-5.93S3.17-7.46,3.17-4.2Z"/></g><path class="cls-2" d="M96.52,33.18h-17.09c-15.1,0-19.21,6.09-20.8,12.45h0c-.48,2.33.46,4.73,2.4,6.12l23.37,21.01c3.44,2.45,5.48,6.41,5.49,10.63h0c0,1.85,0,3.05-.66,6.36-3.44,16.16-16.69,24.77-38.81,24.77l-29.41-1.85,2.12-10.2h23.31c15.1,0,16.43-5.17,18.81-15.63h0c.16-1.06-.29-2.11-1.16-2.73l-27.58-23.83c-2.66-1.88-4.25-4.93-4.25-8.19v-.1c0-1.46.13-3.05.4-4.5,3.18-16.16,15.1-26.63,39.61-26.63l26.23,2.12-1.99,10.2Z"/><path class="cls-2" d="M151.36,113.71c-13.78,0-18.28,0-18.28-7.15,0-3.18,1.19-8.48,2.52-15.1l5.56-25.83c.4-2.12.79-4.11.79-5.7,0-4.24-2.25-6.09-9.67-6.09h-12.98l-12.72,59.87h-20.27L111.5,3.46c13.51,0,18.02.13,18.02,7.55,0,3.44-6.24,25.61-7.83,32.76l21.19-1.99c9.27,0,19.47,3.71,19.47,17.22,0,2.12-.26,4.37-.79,6.89l-10.2,47.82Z"/><path class="cls-2" d="M222.89,70.53h-15.37c.66-3.18,1.06-5.7,1.06-8.08,0-6.09-3.31-7.82-10.46-7.82h-9.01l-12.58,59.08h-20.27l14.84-69.68,32.98-2.65c13.78,0,22.78,7.02,22.78,16.03,0,1.85-.53,3.97-1.19,5.83l-2.78,7.29Z"/><path class="cls-2" d="M278.79,112.39l-34.97,2.38c-18.28,0-26.89-5.43-26.89-17.22,0-2.12.26-4.37.8-6.89l.53-2.38c3.58-16.43,14.04-22.92,28.74-22.92l21.06,1.85,1.06-4.77c1.06-4.9-.53-7.95-16.29-7.95h-23.05l1.99-10.33,24.9-2.38c23.31,0,32.85,5.3,32.85,17.75,0,2.25-.4,4.77-.93,7.42l-9.8,45.44ZM252.43,76.36c-10.73,0-12.05,5.43-13.78,13.38,0,.4-.27.93-.27,1.32-.53,2.25-.79,4.24-.79,5.83,0,4.24,2.12,6.09,9.01,6.09h13.78c1.85-8.87,3.97-17.62,5.83-26.63h-13.78Z"/><path class="cls-2" d="M390.06,113.71c-13.78,0-18.28,0-18.28-7.15,0-3.18,1.19-8.61,2.65-15.63l5.3-24.64c.4-2.12.66-3.97.66-5.56,0-4.24-2.12-6.36-9.01-6.36h-14.7c.66,2.65,1.06,5.03,1.06,7.29,0,1.72-.26,3.44-.66,5.17-.93,3.97-1.85,9.01-3.05,14.31-2.38,10.46-4.77,22.12-7.15,32.59h-20.4l10.07-47.42c.4-2.12.8-3.97.8-5.56,0-4.11-2.25-5.96-9.01-5.96h-12.05l-12.58,58.95h-20.27l14.84-69.41,34.04-2.52c6.09,0,13.91,1.46,18.55,3.71l24.64-4.11c16.43.13,25.57,5.83,25.57,17.88,0,1.85-.13,3.97-.66,6.23l-10.33,48.22Z"/><path class="cls-2" d="M19.76,136.09c-1.3,0-2.61-.45-3.64-1.37l1.12-1.34c.77.64,1.58,1.04,2.56,1.04.77,0,1.24-.31,1.24-.81v-.02c0-.48-.29-.72-1.73-1.09-1.73-.44-2.84-.92-2.84-2.62v-.02c0-1.56,1.25-2.59,3-2.59,1.25,0,2.32.39,3.19,1.09l-.98,1.42c-.76-.53-1.51-.85-2.23-.85s-1.1.33-1.1.75v.02c0,.56.37.75,1.85,1.13,1.74.45,2.72,1.08,2.72,2.57v.02c0,1.7-1.3,2.66-3.15,2.66Z"/><path class="cls-2" d="M28.48,132.55v3.42h-1.89v-3.38l-3.3-5.2h2.21l2.05,3.44,2.08-3.44h2.14l-3.3,5.16Z"/><path class="cls-2" d="M35.58,136.09c-1.3,0-2.61-.45-3.64-1.37l1.11-1.34c.77.64,1.58,1.04,2.56,1.04.77,0,1.24-.31,1.24-.81v-.02c0-.48-.29-.72-1.73-1.09-1.73-.44-2.84-.92-2.84-2.62v-.02c0-1.56,1.25-2.59,3-2.59,1.25,0,2.32.39,3.19,1.09l-.98,1.42c-.76-.53-1.51-.85-2.23-.85s-1.1.33-1.1.75v.02c0,.56.37.75,1.85,1.13,1.74.45,2.72,1.08,2.72,2.57v.02c0,1.7-1.3,2.66-3.15,2.66Z"/><path class="cls-2" d="M44.07,129.13v6.84h-1.89v-6.84h-2.61v-1.74h7.11v1.74h-2.61Z"/><path class="cls-2" d="M48.12,135.97v-8.58h6.47v1.68h-4.6v1.74h4.04v1.68h-4.04v1.8h4.66v1.68h-6.53Z"/><path class="cls-2" d="M63.03,135.97v-5.6l-2.41,3.66h-.05l-2.39-3.63v5.56h-1.85v-8.58h2.03l2.25,3.63,2.25-3.63h2.03v8.58h-1.87Z"/><path class="cls-2" d="M72.53,129.11v1.83h4.09v1.72h-4.09v3.32h-1.89v-8.58h6.53v1.72h-4.64Z"/><path class="cls-2" d="M82.85,136.12c-2.65,0-4.55-1.97-4.55-4.41v-.02c0-2.44,1.92-4.44,4.57-4.44s4.55,1.97,4.55,4.41v.02c0,2.44-1.92,4.44-4.57,4.44ZM85.45,131.68c0-1.47-1.08-2.7-2.6-2.7s-2.57,1.2-2.57,2.67v.02c0,1.47,1.08,2.7,2.6,2.7s2.57-1.2,2.57-2.67v-.02Z"/><path class="cls-2" d="M94.3,135.97l-1.84-2.74h-1.48v2.74h-1.89v-8.58h3.92c2.02,0,3.24,1.07,3.24,2.83v.02c0,1.38-.75,2.25-1.84,2.66l2.1,3.06h-2.21ZM94.34,130.32c0-.81-.56-1.23-1.48-1.23h-1.87v2.46h1.91c.92,0,1.45-.49,1.45-1.21v-.02Z"/><path class="cls-2" d="M107,135.97v-3.44h-3.48v3.44h-1.89v-8.58h1.89v3.39h3.48v-3.39h1.89v8.58h-1.89Z"/><path class="cls-2" d="M110.94,135.97v-8.58h6.47v1.68h-4.6v1.74h4.04v1.68h-4.04v1.8h4.66v1.68h-6.53Z"/><path class="cls-2" d="M125.54,135.97l-.78-1.92h-3.63l-.78,1.92h-1.92l3.68-8.64h1.74l3.68,8.64h-1.97ZM122.94,129.6l-1.14,2.78h2.28l-1.14-2.78Z"/><path class="cls-2" d="M131.61,129.13v6.84h-1.89v-6.84h-2.61v-1.74h7.11v1.74h-2.61Z"/><path class="cls-2" d="M144.55,135.97l-1.84-2.74h-1.48v2.74h-1.89v-8.58h3.92c2.02,0,3.23,1.07,3.23,2.83v.02c0,1.38-.75,2.25-1.84,2.66l2.1,3.06h-2.21ZM144.59,130.32c0-.81-.56-1.23-1.48-1.23h-1.87v2.46h1.91c.92,0,1.45-.49,1.45-1.21v-.02Z"/><path class="cls-2" d="M148.29,135.97v-8.58h1.89v8.58h-1.89Z"/><path class="cls-2" d="M155.37,136.09c-1.3,0-2.61-.45-3.64-1.37l1.11-1.34c.77.64,1.58,1.04,2.56,1.04.77,0,1.24-.31,1.24-.81v-.02c0-.48-.29-.72-1.73-1.09-1.73-.44-2.84-.92-2.84-2.62v-.02c0-1.56,1.25-2.59,3-2.59,1.25,0,2.32.39,3.19,1.09l-.98,1.42c-.76-.53-1.51-.85-2.23-.85s-1.1.33-1.1.75v.02c0,.56.37.75,1.85,1.13,1.74.45,2.72,1.08,2.72,2.57v.02c0,1.7-1.3,2.66-3.15,2.66Z"/><path class="cls-2" d="M165.7,135.97l-2.66-3.65-.99,1.03v2.62h-1.89v-8.58h1.89v3.75l3.48-3.75h2.28l-3.49,3.64,3.65,4.94h-2.27Z"/><path class="cls-2" d="M179.17,135.97l-.78-1.92h-3.63l-.78,1.92h-1.92l3.68-8.64h1.74l3.68,8.64h-1.97ZM176.57,129.6l-1.14,2.78h2.28l-1.14-2.78Z"/><path class="cls-2" d="M185.39,136.09c-1.3,0-2.61-.45-3.64-1.37l1.11-1.34c.77.64,1.58,1.04,2.56,1.04.77,0,1.24-.31,1.24-.81v-.02c0-.48-.29-.72-1.73-1.09-1.73-.44-2.84-.92-2.84-2.62v-.02c0-1.56,1.25-2.59,3-2.59,1.25,0,2.32.39,3.19,1.09l-.98,1.42c-.76-.53-1.51-.85-2.23-.85s-1.1.33-1.1.75v.02c0,.56.37.75,1.85,1.13,1.74.45,2.72,1.08,2.72,2.57v.02c0,1.7-1.3,2.66-3.15,2.66Z"/><path class="cls-2" d="M193.11,136.09c-1.3,0-2.61-.45-3.64-1.37l1.12-1.34c.77.64,1.58,1.04,2.56,1.04.77,0,1.24-.31,1.24-.81v-.02c0-.48-.29-.72-1.73-1.09-1.73-.44-2.84-.92-2.84-2.62v-.02c0-1.56,1.25-2.59,3-2.59,1.25,0,2.32.39,3.19,1.09l-.98,1.42c-.76-.53-1.51-.85-2.23-.85s-1.1.33-1.1.75v.02c0,.56.37.75,1.85,1.13,1.74.45,2.72,1.08,2.72,2.57v.02c0,1.7-1.3,2.66-3.15,2.66Z"/><path class="cls-2" d="M197.9,135.97v-8.58h6.47v1.68h-4.6v1.74h4.04v1.68h-4.04v1.8h4.66v1.68h-6.53Z"/><path class="cls-2" d="M209.16,136.09c-1.3,0-2.61-.45-3.64-1.37l1.12-1.34c.77.64,1.58,1.04,2.56,1.04.77,0,1.24-.31,1.24-.81v-.02c0-.48-.29-.72-1.73-1.09-1.73-.44-2.84-.92-2.84-2.62v-.02c0-1.56,1.25-2.59,3-2.59,1.25,0,2.32.39,3.19,1.09l-.98,1.42c-.76-.53-1.51-.85-2.23-.85s-1.1.33-1.1.75v.02c0,.56.37.75,1.85,1.13,1.74.45,2.72,1.08,2.72,2.57v.02c0,1.7-1.3,2.66-3.15,2.66Z"/><path class="cls-2" d="M216.88,136.09c-1.3,0-2.61-.45-3.64-1.37l1.12-1.34c.77.64,1.58,1.04,2.56,1.04.77,0,1.24-.31,1.24-.81v-.02c0-.48-.29-.72-1.73-1.09-1.73-.44-2.84-.92-2.84-2.62v-.02c0-1.56,1.25-2.59,3-2.59,1.25,0,2.32.39,3.19,1.09l-.98,1.42c-.76-.53-1.51-.85-2.23-.85s-1.1.33-1.1.75v.02c0,.56.37.75,1.85,1.13,1.74.45,2.72,1.08,2.72,2.57v.02c0,1.7-1.3,2.66-3.15,2.66Z"/><path class="cls-2" d="M228.37,135.97v-5.6l-2.41,3.66h-.05l-2.39-3.63v5.56h-1.85v-8.58h2.03l2.25,3.63,2.25-3.63h2.03v8.58h-1.87Z"/><path class="cls-2" d="M232.31,135.97v-8.58h6.47v1.68h-4.6v1.74h4.04v1.68h-4.04v1.8h4.66v1.68h-6.53Z"/><path class="cls-2" d="M246.53,135.97l-4.15-5.45v5.45h-1.86v-8.58h1.74l4.02,5.28v-5.28h1.86v8.58h-1.61Z"/><path class="cls-2" d="M254.08,129.13v6.84h-1.89v-6.84h-2.61v-1.74h7.11v1.74h-2.61Z"/><path class="cls-2" d="M263.7,129.11v1.83h4.09v1.72h-4.09v3.32h-1.89v-8.58h6.53v1.72h-4.64Z"/><path class="cls-2" d="M274.02,136.12c-2.65,0-4.55-1.97-4.55-4.41v-.02c0-2.44,1.92-4.44,4.57-4.44s4.55,1.97,4.55,4.41v.02c0,2.44-1.92,4.44-4.57,4.44ZM276.61,131.68c0-1.47-1.08-2.7-2.6-2.7s-2.57,1.2-2.57,2.67v.02c0,1.47,1.08,2.7,2.6,2.7s2.57-1.2,2.57-2.67v-.02Z"/><path class="cls-2" d="M285.47,135.97l-1.84-2.74h-1.48v2.74h-1.89v-8.58h3.92c2.02,0,3.24,1.07,3.24,2.83v.02c0,1.38-.75,2.25-1.84,2.66l2.1,3.06h-2.21ZM285.51,130.32c0-.81-.56-1.23-1.48-1.23h-1.87v2.46h1.91c.92,0,1.45-.49,1.45-1.21v-.02Z"/><path class="cls-2" d="M299.5,135.97v-5.6l-2.41,3.66h-.05l-2.39-3.63v5.56h-1.85v-8.58h2.03l2.25,3.63,2.25-3.63h2.03v8.58h-1.87Z"/><path class="cls-2" d="M309.82,135.97l-.78-1.92h-3.63l-.78,1.92h-1.92l3.68-8.64h1.74l3.68,8.64h-1.97ZM307.22,129.6l-1.14,2.78h2.28l-1.14-2.78Z"/><path class="cls-2" d="M319.13,135.97l-4.15-5.45v5.45h-1.86v-8.58h1.74l4.02,5.28v-5.28h1.86v8.58h-1.61Z"/><path class="cls-2" d="M326.37,136.11c-2.3,0-3.71-1.29-3.71-3.81v-4.9h1.89v4.85c0,1.4.7,2.12,1.85,2.12s1.85-.7,1.85-2.06v-4.91h1.89v4.84c0,2.6-1.46,3.87-3.76,3.87Z"/><path class="cls-2" d="M338.13,135.97l-.78-1.92h-3.63l-.78,1.92h-1.92l3.68-8.64h1.74l3.68,8.64h-1.97ZM335.54,129.6l-1.14,2.78h2.28l-1.14-2.78Z"/><path class="cls-2" d="M341.43,135.97v-8.58h1.89v6.86h4.28v1.72h-6.16Z"/><path class="cls-2" d="M352.69,135.97v-8.58h1.89v6.86h4.28v1.72h-6.16Z"/><path class="cls-2" d="M366.66,135.97l-.78-1.92h-3.63l-.78,1.92h-1.92l3.68-8.64h1.74l3.68,8.64h-1.97ZM364.06,129.6l-1.14,2.78h2.28l-1.14-2.78Z"/><path class="cls-2" d="M374.03,135.97h-4.08v-8.58h3.98c1.75,0,2.83.87,2.83,2.22v.02c0,.97-.51,1.51-1.13,1.85.99.38,1.61.96,1.61,2.11v.02c0,1.57-1.27,2.35-3.21,2.35ZM374.89,129.93c0-.56-.44-.88-1.24-.88h-1.86v1.81h1.74c.83,0,1.36-.27,1.36-.91v-.02ZM375.37,133.36c0-.58-.43-.93-1.4-.93h-2.18v1.89h2.24c.83,0,1.34-.29,1.34-.93v-.02Z"/><path class="cls-2" d="M382.97,136.12c-2.65,0-4.55-1.97-4.55-4.41v-.02c0-2.44,1.92-4.44,4.57-4.44s4.55,1.97,4.55,4.41v.02c0,2.44-1.92,4.44-4.57,4.44ZM385.56,131.68c0-1.47-1.08-2.7-2.6-2.7s-2.57,1.2-2.57,2.67v.02c0,1.47,1.08,2.7,2.6,2.7s2.57-1.2,2.57-2.67v-.02Z"/><path class="cls-2" d="M394.42,135.97l-1.84-2.74h-1.48v2.74h-1.89v-8.58h3.92c2.02,0,3.24,1.07,3.24,2.83v.02c0,1.38-.75,2.25-1.84,2.66l2.1,3.06h-2.21ZM394.46,130.32c0-.81-.56-1.23-1.48-1.23h-1.87v2.46h1.91c.92,0,1.45-.49,1.45-1.21v-.02Z"/><path class="cls-2" d="M401.87,32.2H133.69l1.99-10.2,259.25-.48c3.83,0,6.94,10.68,6.94,10.68Z"/></svg>